# xmcd
#
# Track frame offsets: 
#        150
#        9397
#        23594
#        37986
#        53888
#        69250
#        84732
#        97254
#        111521
#        127233
#        139920
#        144792
#        160704
#        165266
#        171233
#        186615
#        223697
#        235059
#        248111
#        264848
#
# Disc length: 3803 seconds
#
# Revision: 0
# Processed by: cddbd v1.5.2PL0 Copyright (c) Steve Scherf et al.
# Submitted via: ExactAudioCopy v0.95b4
#
DISCID=140ed914
DTITLE=The Beatles  - Inside Sgt Pepper - CD 2  
DYEAR=1900
DGENRE=
TTITLE0=Good Morning Good Morning - Unedited Animal Noises
TTITLE1=Strawberry fields - take 1 rough mix
TTITLE2=Strawberry Fields - Take 4
TTITLE3=Strawberry Fields - Take 25
TTITLE4=Strawberry Fields - Take Take 26 John's Vocal Overdub
TTITLE5=Strawberry Fields - 2005 Remix
TTITLE6=Penny Lane - Flute Overdub Sessions
TTITLE7=Penny Lane - Unused 1966 Mono Mix and Diff Horn Arrangement
TTITLE8=Penny Lane - 2005 Remix
TTITLE9=When I'm 64 - Rough Mix No Guitar Or Brass
TTITLE10=Lucy In The Sky - From 1997 Tv Show The Making Of Sgt Pepper
TTITLE11=Lucy In The Sky - Alt 1967 Mono Mix
TTITLE12=Mr Kite - From 1997 Tv Show The Making Of Sgt Pepper
TTITLE13=Within You Without You - From 1997 Tv Show The Making Of Sgt 
TTITLE13=Pepper
TTITLE14=Only A Northern Song - Unused 1967 Mono Mix
TTITLE15=It's All Too Much - Unused and Unedited 1967 Mono Mix
TTITLE16=Sgt Pepper - 2007 Stereo Remix
TTITLE17=With A Little Help From My Friends - 2007 Stereo Remix
TTITLE18=She's Leaving Home - 2007 Stereo Remix
TTITLE19=A Day In The Life - 2007 Stereo Remix
EXTD=
EXTT0=
EXTT1=
EXTT2=
EXTT3=
EXTT4=
EXTT5=
EXTT6=
EXTT7=
EXTT8=
EXTT9=
EXTT10=
EXTT11=
EXTT12=
EXTT13=
EXTT14=
EXTT15=
EXTT16=
EXTT17=
EXTT18=
EXTT19=
PLAYORDER=
